<?xml version="1.0" encoding="utf-8"?>
<!-- Generator: Adobe Illustrator 16.0.0, SVG Export Plug-In . SVG Version: 6.00 Build 0)  -->
<!DOCTYPE svg PUBLIC "-//W3C//DTD SVG 1.1//EN" "http://www.w3.org/Graphics/SVG/1.1/DTD/svg11.dtd">
<svg version="1.1" id="Layer_1" xmlns="http://www.w3.org/2000/svg" xmlns:xlink="http://www.w3.org/1999/xlink" x="0px" y="0px"
	 width="33.451px" height="33.736px" viewBox="0 0 33.451 33.736" enable-background="new 0 0 33.451 33.736" xml:space="preserve">
<path fill-rule="evenodd" clip-rule="evenodd" d="M17.04,34.236c-9.238,0-16.726-7.553-16.726-16.868
	C0.314,8.052,7.802,0.5,17.04,0.5c9.236,0,16.726,7.552,16.726,16.868C33.766,26.684,26.276,34.236,17.04,34.236z M17.04,4.717
	c-6.928,0-12.545,5.664-12.545,12.651S10.112,30.02,17.04,30.02s12.544-5.664,12.544-12.651S23.968,4.717,17.04,4.717z
	 M17.523,14.026l-0.003,1.192h2.099l-0.453,2.393h-1.583l0.008,6.355l-2.647,0.009l-0.008-6.348l-1.566-0.017v-2.4l1.583-0.009
	l0.049-1.31c0-1.802,0.616-2.931,2.722-2.931l1.935,0.008l0.009,2.129l-1.023,0.074C17.822,13.171,17.523,13.451,17.523,14.026z"/>
</svg>
