<?xml version="1.0" encoding="utf-8"?>
<!-- Generator: Adobe Illustrator 16.0.0, SVG Export Plug-In . SVG Version: 6.00 Build 0)  -->
<!DOCTYPE svg PUBLIC "-//W3C//DTD SVG 1.1//EN" "http://www.w3.org/Graphics/SVG/1.1/DTD/svg11.dtd">
<svg version="1.1" id="Layer_1" xmlns="http://www.w3.org/2000/svg" xmlns:xlink="http://www.w3.org/1999/xlink" x="0px" y="0px"
	 width="33.451px" height="33.736px" viewBox="0 0 33.451 33.736" enable-background="new 0 0 33.451 33.736" xml:space="preserve">
<path fill-rule="evenodd" clip-rule="evenodd" d="M16.726,33.736C7.488,33.736,0,26.184,0,16.868C0,7.552,7.488,0,16.726,0
	s16.726,7.552,16.726,16.868C33.451,26.184,25.963,33.736,16.726,33.736z M16.726,4.217c-6.928,0-12.544,5.664-12.544,12.651
	S9.798,29.52,16.726,29.52s12.545-5.664,12.545-12.651S23.653,4.217,16.726,4.217z M21.866,14.646
	c0.005,0.116,0.007,0.233,0.007,0.351c0,3.581-2.702,7.71-7.645,7.71c-1.518,0-2.93-0.449-4.119-1.219
	c0.21,0.025,0.424,0.039,0.641,0.039c1.26,0,2.418-0.434,3.337-1.16c-1.176-0.021-2.168-0.806-2.51-1.882
	c0.164,0.031,0.333,0.048,0.506,0.048c0.245,0,0.482-0.033,0.708-0.095c-1.229-0.249-2.155-1.344-2.155-2.657
	c0-0.011,0-0.022,0-0.034c0.362,0.203,0.776,0.324,1.217,0.338c-0.721-0.486-1.195-1.315-1.195-2.255
	c0-0.497,0.133-0.962,0.364-1.362c1.325,1.64,3.305,2.718,5.538,2.832c-0.046-0.199-0.069-0.405-0.069-0.617
	c0-1.497,1.203-2.71,2.687-2.71c0.773,0,1.472,0.329,1.962,0.855c0.611-0.122,1.187-0.347,1.706-0.658
	c-0.201,0.633-0.627,1.164-1.182,1.5c0.544-0.066,1.062-0.211,1.543-0.427C22.847,13.786,22.391,14.264,21.866,14.646z"/>
</svg>
